<svg width="80" height="38" viewBox="0 0 80 38" fill="none" xmlns="http://www.w3.org/2000/svg">
<path d="M16.8371 28.4462C17.007 28.0402 17.3303 27.7177 17.7367 27.5489C18.1431 27.3801 18.5997 27.3786 19.0073 27.5447C19.3136 27.6696 19.5759 27.8827 19.761 28.1569C19.946 28.4312 20.0453 28.7542 20.0464 29.0851C20.0475 29.4159 19.9503 29.7396 19.7671 30.015C19.5839 30.2905 19.323 30.5053 19.0174 30.6322C18.7119 30.7591 18.3756 30.7924 18.0511 30.7278C17.7267 30.6632 17.4287 30.5037 17.1951 30.2695C16.9615 30.0352 16.8027 29.7369 16.739 29.4122C16.6752 29.0876 16.7094 28.7514 16.8371 28.4462ZM62.9619 27.8953C63.2763 28.2096 63.4529 28.636 63.4529 29.0805C63.4529 29.5251 63.2763 29.9514 62.9619 30.2658C62.6476 30.5801 62.2212 30.7567 61.7767 30.7567C61.3321 30.7567 60.9058 30.5801 60.5914 30.2658C60.4358 30.1101 60.3123 29.9254 60.2281 29.722C60.1438 29.5186 60.1005 29.3007 60.1005 29.0805C60.1005 28.8604 60.1438 28.6424 60.2281 28.4391C60.3123 28.2357 60.4358 28.0509 60.5914 27.8953C60.7471 27.7396 60.9319 27.6162 61.1352 27.5319C61.3386 27.4477 61.5566 27.4043 61.7767 27.4043C61.9968 27.4043 62.2148 27.4477 62.4181 27.5319C62.6215 27.6162 62.8063 27.7396 62.9619 27.8953ZM33.3973 17.3949H36.736C37.1788 17.3949 37.6034 17.5708 37.9165 17.8838C38.2295 18.1969 38.4054 18.6215 38.4054 19.0643C38.4054 19.507 38.2295 19.9316 37.9165 20.2447C37.6034 20.5578 37.1788 20.7336 36.736 20.7336H33.3973C32.9545 20.7336 32.5299 20.5578 32.2169 20.2447C31.9038 19.9316 31.7279 19.507 31.7279 19.0643C31.7279 18.6215 31.9038 18.1969 32.2169 17.8838C32.5299 17.5708 32.9545 17.3949 33.3973 17.3949Z" fill="#9E4DB6"/>
<path d="M4.11643 13.5887L19.3078 10.8176L28.7731 2.70439C31.9282 -2.563e-06 30.6762 0.701136 72.7278 0.701136C73.7798 0.699597 74.8055 1.02936 75.6595 1.64364C76.5135 2.25792 77.1524 3.12552 77.4855 4.12336C79.2201 9.42957 80.0716 14.9846 80.0063 20.5667C79.9061 25.5748 80.2567 27.3778 78.5706 29.164C76.6508 31.2173 74.5307 30.7499 69.9566 30.7499C69.5735 32.6368 68.5498 34.3332 67.059 35.5517C65.5682 36.7701 63.7021 37.4358 61.7767 37.4358C59.8513 37.4358 57.9851 36.7701 56.4943 35.5517C55.0036 34.3332 53.9799 32.6368 53.5967 30.7499H26.5528C26.1697 32.6368 25.146 34.3332 23.6552 35.5517C22.1645 36.7701 20.2983 37.4358 18.3729 37.4358C16.4475 37.4358 14.5813 36.7701 13.0906 35.5517C11.5998 34.3332 10.5761 32.6368 10.193 30.7499H5.0179C3.68966 30.7499 2.41582 30.2223 1.47662 29.2831C0.537407 28.3439 0.00976562 27.07 0.00976562 25.7418V18.5134C0.0101547 17.3418 0.421288 16.2074 1.17162 15.3076C1.92194 14.4079 2.96398 13.7996 4.11643 13.5887ZM3.34852 20.4332C4.20601 20.1444 4.96923 19.6287 5.55711 18.9409C6.14498 18.253 6.53554 17.4188 6.68727 16.5268C3.03134 17.1779 3.34852 17.2113 3.34852 20.4332ZM24.5496 10.7174H38.4054V4.03989C31.1102 4.03989 33.3973 3.15512 24.5496 10.7174ZM50.0911 4.03989V10.7174H58.4379V4.03989H50.0911ZM76.2836 14.0561H73.4623V15.7255C73.4623 16.1683 73.6382 16.5929 73.9513 16.9059C74.2643 17.219 74.6889 17.3949 75.1317 17.3949H76.584C76.534 16.2764 76.4171 15.1579 76.2836 14.0561ZM61.7767 34.0887C62.7672 34.0887 63.7355 33.7949 64.559 33.2446C65.3826 32.6943 66.0245 31.9122 66.4036 30.9971C66.7826 30.0819 66.8818 29.075 66.6886 28.1035C66.4953 27.132 66.0184 26.2396 65.318 25.5392C64.6176 24.8388 63.7252 24.3619 62.7537 24.1686C61.7822 23.9754 60.7753 24.0746 59.8602 24.4536C58.945 24.8327 58.1629 25.4746 57.6126 26.2982C57.0623 27.1217 56.7686 28.09 56.7686 29.0805C56.7686 30.4088 57.2962 31.6826 58.2354 32.6218C59.1746 33.561 60.4484 34.0887 61.7767 34.0887ZM18.3729 34.0887C19.3634 34.0887 20.3317 33.7949 21.1553 33.2446C21.9789 32.6943 22.6208 31.9122 22.9998 30.9971C23.3789 30.0819 23.478 29.075 23.2848 28.1035C23.0916 27.132 22.6146 26.2396 21.9142 25.5392C21.2138 24.8388 20.3214 24.3619 19.3499 24.1686C18.3785 23.9754 17.3715 24.0746 16.4564 24.4536C15.5413 24.8327 14.7591 25.4746 14.2088 26.2982C13.6585 27.1217 13.3648 28.09 13.3648 29.0805C13.3648 30.4088 13.8924 31.6826 14.8316 32.6218C15.7708 33.561 17.0447 34.0887 18.3729 34.0887ZM5.0179 27.4112H10.193C10.5761 25.5243 11.5998 23.8279 13.0906 22.6094C14.5813 21.3909 16.4475 20.7253 18.3729 20.7253C20.2983 20.7253 22.1645 21.3909 23.6552 22.6094C25.146 23.8279 26.1697 25.5243 26.5528 27.4112H53.5967C53.9799 25.5243 55.0036 23.8279 56.4943 22.6094C57.9851 21.3909 59.8513 20.7253 61.7767 20.7253C63.7021 20.7253 65.5682 21.3909 67.059 22.6094C68.5498 23.8279 69.5735 25.5243 69.9566 27.4112C77.5189 27.4112 76.534 28.4128 76.6341 20.7336H75.1317C73.8035 20.7336 72.5296 20.206 71.5904 19.2668C70.6512 18.3276 70.1236 17.0538 70.1236 15.7255V12.3868C70.1236 11.944 70.2994 11.5194 70.6125 11.2063C70.9256 10.8933 71.3502 10.7174 71.7929 10.7174H75.7327C75.3758 8.84214 74.9019 6.99108 74.3137 5.17506C73.7962 3.65593 73.3788 4.03989 61.7767 4.03989V12.3868C61.7767 12.8295 61.6008 13.2541 61.2877 13.5672C60.9747 13.8803 60.5501 14.0561 60.1073 14.0561H48.4217C47.9789 14.0561 47.5543 13.8803 47.2412 13.5672C46.9282 13.2541 46.7523 12.8295 46.7523 12.3868V4.03989H41.7442V10.7174C41.7442 11.6029 41.3924 12.4521 40.7663 13.0782C40.1401 13.7044 39.2909 14.0561 38.4054 14.0561C16.5366 14.0561 22.8301 13.572 10.026 15.9092C9.98467 17.8017 9.30125 19.6239 8.0879 21.0769C6.87455 22.5299 5.20335 23.5273 3.34852 23.9055V25.7418C3.34852 26.1845 3.5244 26.6091 3.83746 26.9222C4.15054 27.2353 4.57515 27.4112 5.0179 27.4112Z" fill="#9E4DB6"/>
</svg>
