<svg width="86" height="38" viewBox="0 0 86 38" fill="none" xmlns="http://www.w3.org/2000/svg">
<path d="M12.0937 10.9375H27.1343C29.2698 10.9346 31.3412 10.208 33.0105 8.87619L42.0311 1.66563C43.2216 0.712603 44.7 0.191511 46.225 0.1875H48.375C48.6333 0.187279 48.8862 0.261526 49.1034 0.401347C49.3207 0.541169 49.493 0.740638 49.5997 0.975869C49.7065 1.2111 49.7432 1.47212 49.7054 1.72768C49.6677 1.98323 49.5571 2.22248 49.3868 2.41678L43.5079 9.13554C43.273 9.4039 42.9412 9.56796 42.5854 9.59165C42.2295 9.61534 41.8789 9.49671 41.6105 9.26185C41.3422 9.02699 41.1781 8.69515 41.1544 8.33932C41.1307 7.98349 41.2494 7.63283 41.4842 7.36447L45.3233 2.97847C44.7345 3.11489 44.1835 3.38117 43.7108 3.75785L34.6902 10.9751C32.5438 12.6876 29.8802 13.6218 27.1343 13.625H12.0937C9.63606 13.6243 7.27662 14.5896 5.52409 16.3125H9.40619C9.76257 16.3125 10.1044 16.4541 10.3564 16.7061C10.6084 16.9581 10.7499 17.2999 10.7499 17.6563C10.7478 19.4375 10.0393 21.1452 8.77971 22.4048C7.52016 23.6643 5.81245 24.3729 4.03119 24.375H2.68744V28.4063C2.68744 28.7627 2.82901 29.1044 3.08101 29.3564C3.33302 29.6084 3.6748 29.75 4.03119 29.75H10.8574C10.6532 28.4104 10.7407 27.0424 11.1142 25.7397C11.4876 24.4371 12.1382 23.2305 13.0212 22.2026C13.9043 21.1747 14.999 20.3497 16.2305 19.7841C17.4619 19.2185 18.8011 18.9257 20.1562 18.9257C21.5113 18.9257 22.8505 19.2185 24.0819 19.7841C25.3134 20.3497 26.4081 21.1747 27.2912 22.2026C28.1742 23.2305 28.8247 24.4371 29.1982 25.7397C29.5717 27.0424 29.6592 28.4104 29.455 29.75H56.545C56.3407 28.4104 56.4283 27.0424 56.8017 25.7397C57.1752 24.4371 57.8257 23.2305 58.7087 22.2026C59.5918 21.1747 60.6865 20.3497 61.918 19.7841C63.1495 19.2185 64.4886 18.9257 65.8437 18.9257C67.1989 18.9257 68.538 19.2185 69.7695 19.7841C71.0009 20.3497 72.0957 21.1747 72.9787 22.2026C73.8618 23.2305 74.5123 24.4371 74.8857 25.7397C75.2592 27.0424 75.3468 28.4104 75.1425 29.75H79.2812C79.4899 29.75 79.6956 29.7015 79.8822 29.6082C80.0688 29.5149 80.2311 29.3794 80.3562 29.2125L82.5062 26.3463C82.9334 25.7692 83.1991 25.0888 83.2762 24.375H81.9687C80.8996 24.375 79.8742 23.9503 79.1182 23.1943C78.3622 22.4383 77.9375 21.4129 77.9375 20.3438C77.9375 19.2746 78.3622 18.2492 79.1182 17.4932C79.8742 16.7372 80.8996 16.3125 81.9687 16.3125H83.2991C83.266 15.4434 82.9519 14.6085 82.4038 13.9331C81.8557 13.2578 81.1032 12.7786 80.2595 12.5675L75.0995 11.2775C74.3554 11.0912 73.5737 11.121 72.846 11.3635L67.9239 13.0042C66.6901 13.4164 65.3977 13.626 64.0969 13.625H38.9687C38.6123 13.625 38.2705 13.4834 38.0185 13.2314C37.7665 12.9794 37.625 12.6376 37.625 12.2813C37.625 11.9249 37.7665 11.5831 38.0185 11.3311C38.2705 11.0791 38.6123 10.9375 38.9687 10.9375H57.7812V8.92188C57.7812 8.03092 58.1352 7.17645 58.7652 6.54644C59.3952 5.91644 60.2496 5.5625 61.1406 5.5625C62.0316 5.5625 62.886 5.91644 63.516 6.54644C64.146 7.17645 64.5 8.03092 64.5 8.92188V10.9053C65.3745 10.8755 66.2406 10.724 67.0733 10.4551L71.9968 8.81304C73.2087 8.40931 74.5106 8.35943 75.7499 8.66926L80.9099 9.95926C82.3644 10.3212 83.6559 11.1598 84.5785 12.3412C85.501 13.5226 86.0014 14.9789 86 16.4778V23.9275C85.9973 25.3808 85.5261 26.7945 84.6562 27.9588L82.5062 30.825C82.1297 31.3246 81.6426 31.7302 81.0831 32.01C80.5236 32.2897 79.9068 32.4361 79.2812 32.4375H74.3295C73.5695 34.0453 72.3684 35.404 70.8661 36.3556C69.3638 37.3072 67.6221 37.8123 65.8437 37.8123C64.0654 37.8123 62.3237 37.3072 60.8214 36.3556C59.319 35.404 58.1179 34.0453 57.3579 32.4375H28.642C27.882 34.0453 26.6809 35.404 25.1786 36.3556C23.6763 37.3072 21.9345 37.8123 20.1562 37.8123C18.3779 37.8123 16.6361 37.3072 15.1338 36.3556C13.6315 35.404 12.4304 34.0453 11.6704 32.4375H4.03119C2.96203 32.4375 1.93667 32.0128 1.18066 31.2568C0.42466 30.5008 -6.10352e-05 29.4754 -6.10352e-05 28.4063V23.0313C0.00349426 19.8249 1.27879 16.7509 3.54604 14.4836C5.81329 12.2164 8.88732 10.9411 12.0937 10.9375ZM61.8125 8.92188C61.8125 8.74369 61.7417 8.57279 61.6157 8.44679C61.4897 8.32079 61.3188 8.25001 61.1406 8.25001C60.9624 8.25001 60.7915 8.32079 60.6655 8.44679C60.5395 8.57279 60.4687 8.74369 60.4687 8.92188V10.9375H61.8125V8.92188ZM80.625 20.3438C80.625 20.7001 80.7666 21.0419 81.0186 21.2939C81.2706 21.5459 81.6124 21.6875 81.9687 21.6875H83.3125V19H81.9687C81.6124 19 81.2706 19.1416 81.0186 19.3936C80.7666 19.6456 80.625 19.9874 80.625 20.3438ZM65.8437 35.125C67.1726 35.125 68.4716 34.731 69.5765 33.9927C70.6814 33.2544 71.5425 32.2051 72.0511 30.9774C72.5596 29.7497 72.6926 28.3988 72.4334 27.0955C72.1741 25.7922 71.5342 24.595 70.5946 23.6554C69.655 22.7158 68.4578 22.0759 67.1545 21.8166C65.8512 21.5574 64.5003 21.6904 63.2726 22.1989C62.0449 22.7075 60.9956 23.5686 60.2573 24.6735C59.519 25.7784 59.125 27.0774 59.125 28.4063C59.1271 30.1875 59.8357 31.8952 61.0952 33.1548C62.3548 34.4143 64.0625 35.1229 65.8437 35.125ZM20.1562 35.125C21.485 35.125 22.784 34.731 23.8889 33.9927C24.9938 33.2544 25.855 32.2051 26.3635 30.9774C26.872 29.7497 27.0051 28.3988 26.7459 27.0955C26.4866 25.7922 25.8467 24.595 24.9071 23.6554C23.9674 22.7158 22.7703 22.0759 21.467 21.8166C20.1637 21.5574 18.8127 21.6904 17.585 22.1989C16.3573 22.7075 15.308 23.5686 14.5698 24.6735C13.8315 25.7784 13.4374 27.0774 13.4374 28.4063C13.4396 30.1875 14.1481 31.8952 15.4077 33.1548C16.6672 34.4143 18.3749 35.1229 20.1562 35.125ZM7.83266 19H3.60791C3.20278 19.8497 2.92868 20.7558 2.79494 21.6875H4.03119C4.86468 21.6865 5.67745 21.4277 6.35804 20.9465C7.03864 20.4654 7.55372 19.7854 7.83266 19Z" fill="#9E4DB6"/>
</svg>
