<svg width="93" height="36" viewBox="0 0 93 36" fill="none" xmlns="http://www.w3.org/2000/svg">
<path d="M91.5816 24.6314C91.5754 24.6903 91.5651 24.7486 91.5507 24.806C91.345 25.6302 90.8694 26.3619 90.1997 26.8845C89.5299 27.4071 88.7045 27.6905 87.855 27.6896H81.4241C81.1393 29.8162 80.0924 31.7671 78.4777 33.18C76.8631 34.5928 74.7905 35.3716 72.6449 35.3716C70.4994 35.3716 68.4268 34.5928 66.8121 33.18C65.1974 31.7671 64.1505 29.8162 63.8657 27.6896H26.7391C26.4544 29.8162 25.4074 31.7671 23.7928 33.18C22.1781 34.5928 20.1055 35.3716 17.96 35.3716C15.8144 35.3716 13.7418 34.5928 12.1271 33.18C10.5125 31.7671 9.46553 29.8162 9.18078 27.6896H4.46531C4.05322 27.6918 3.64482 27.6118 3.26403 27.4542C2.88325 27.2966 2.53771 27.0647 2.24767 26.7719C1.43153 25.9066 0.987381 24.7558 1.01063 23.5665V19.9908C0.998116 19.0314 1.35813 18.1045 2.01498 17.4051C9.12854 9.94368 21.0098 9.99472 24.4823 10.1894C24.8374 10.2106 25.1874 10.0965 25.4617 9.87007C31.3953 5.254 38.2847 2.02102 45.6271 0.407081C45.7026 0.391879 45.7793 0.384323 45.8563 0.384525H60.4027C64.5875 0.60534 77.7937 7.54914 78.7031 8.14985C78.9357 8.30418 79.2086 8.38675 79.4878 8.38729H85.4783C86.4886 8.38855 87.4572 8.79044 88.1716 9.50484C88.886 10.2192 89.2879 11.1878 89.2891 12.1981V15.7074C89.2891 15.9646 89.3581 16.2171 89.4891 16.4385C89.62 16.6599 89.8081 16.842 90.0335 16.9658C90.7573 17.363 91.3324 17.9846 91.6722 18.7371C92.012 19.4895 92.0981 20.332 91.9176 21.1376L91.5816 24.6314ZM72.6461 32.9963C73.9304 32.9961 75.1858 32.615 76.2536 31.9013C77.3213 31.1876 78.1535 30.1733 78.6448 28.9867C79.1361 27.8001 79.2646 26.4944 79.0139 25.2348C78.7632 23.9752 78.1446 22.8182 77.2363 21.9102C76.3281 21.0021 75.171 20.3837 73.9114 20.1333C72.6517 19.8828 71.3461 20.0115 70.1595 20.503C68.973 20.9945 67.9589 21.8269 67.2454 22.8948C66.5319 23.9626 66.1511 25.2181 66.1511 26.5024C66.1529 28.2243 66.8379 29.8752 68.0556 31.0926C69.2732 32.3101 70.9242 32.9947 72.6461 32.9963ZM17.96 32.9963C19.2443 32.9963 20.4998 32.6154 21.5677 31.9019C22.6357 31.1883 23.468 30.1741 23.9595 28.9875C24.451 27.8009 24.5796 26.4952 24.329 25.2355C24.0785 23.9759 23.46 22.8188 22.5518 21.9106C21.6436 21.0024 20.4865 20.3839 19.2268 20.1333C17.9672 19.8828 16.6615 20.0114 15.4749 20.5029C14.2883 20.9944 13.2741 21.8267 12.5605 22.8946C11.847 23.9625 11.4661 25.2181 11.4661 26.5024C11.468 28.2241 12.1528 29.8748 13.3702 31.0922C14.5876 32.3096 16.2383 32.9944 17.96 32.9963ZM29.2049 10.0743H46.8179L50.5575 2.76244H45.9738C39.9694 4.10921 34.2777 6.591 29.2049 10.0743ZM60.3398 2.76363H53.2251L49.4855 10.0755H64.5875L69.5274 6.17439C65.8495 4.46485 61.9437 2.84911 60.3398 2.76363ZM88.8926 19.047C88.294 18.7185 87.7946 18.2353 87.4467 17.6478C87.0988 17.0604 86.9151 16.3902 86.9148 15.7074V12.2017C86.9142 11.8209 86.7626 11.4559 86.4934 11.1866C86.2241 10.9174 85.8591 10.7658 85.4783 10.7652H79.4878C78.7434 10.7659 78.0152 10.548 77.3936 10.1384C76.9556 9.8487 74.6928 8.65559 71.9207 7.3117L65.7355 12.1958C65.5259 12.3612 65.2666 12.4511 64.9995 12.451H25.4475C25.0883 12.5456 24.7169 12.5856 24.3458 12.5697C21.1285 12.3905 10.1388 12.3323 3.72807 19.0517C3.49523 19.3123 3.3708 19.6521 3.38023 20.0014V23.5808C3.3617 24.1319 3.54969 24.67 3.90734 25.0897C3.98438 25.1683 4.07696 25.23 4.17915 25.2709C4.28135 25.3117 4.39092 25.3309 4.50092 25.3271H9.18078C9.46553 23.2006 10.5125 21.2496 12.1271 19.8368C13.7418 18.4239 15.8144 17.6451 17.96 17.6451C20.1055 17.6451 22.1781 18.4239 23.7928 19.8368C25.4074 21.2496 26.4544 23.2006 26.7391 25.3271H63.8657C64.1505 23.2006 65.1974 21.2496 66.8121 19.8368C68.4268 18.4239 70.4994 17.6451 72.6449 17.6451C74.7905 17.6451 76.8631 18.4239 78.4777 19.8368C80.0924 21.2496 81.1393 23.2006 81.4241 25.3271H87.855C88.1622 25.3274 88.4613 25.229 88.7084 25.0465C88.9555 24.864 89.1374 24.607 89.2274 24.3133L89.5622 20.842C89.5678 20.7827 89.5781 20.7239 89.5931 20.6663C89.6728 20.3569 89.6473 20.0298 89.5204 19.7365C89.3936 19.4433 89.1727 19.2007 88.8926 19.047Z" fill="#9E4DB6" stroke="#9E4DB6" stroke-width="0.3"/>
<path d="M72.6458 22.3829C73.4605 22.3832 74.2569 22.625 74.9342 23.0778C75.6115 23.5306 76.1393 24.174 76.4509 24.9268C76.7625 25.6796 76.8439 26.5078 76.6849 27.3068C76.5258 28.1059 76.1333 28.8398 75.5572 29.4158C74.981 29.9918 74.247 30.384 73.4479 30.5429C72.6488 30.7017 71.8206 30.6201 71.0679 30.3083C70.3152 29.9964 69.6719 29.4684 69.2193 28.791C68.7667 28.1136 68.5251 27.3172 68.5251 26.5024C68.5264 25.4101 68.961 24.3628 69.7335 23.5905C70.5061 22.8182 71.5535 22.3839 72.6458 22.3829ZM72.6458 28.2476C72.9909 28.2474 73.3282 28.1448 73.6151 27.9529C73.9019 27.761 74.1254 27.4884 74.2573 27.1695C74.3892 26.8506 74.4236 26.4997 74.3561 26.1613C74.2887 25.8228 74.1224 25.512 73.8782 25.268C73.6341 25.0241 73.3232 24.858 72.9847 24.7907C72.6462 24.7235 72.2954 24.7581 71.9765 24.8902C71.6577 25.0224 71.3852 25.246 71.1935 25.533C71.0018 25.82 70.8995 26.1573 70.8995 26.5024C70.9001 26.9653 71.0844 27.409 71.4118 27.7362C71.7392 28.0634 72.183 28.2473 72.6458 28.2476ZM17.9597 22.3829C18.7745 22.3829 19.5709 22.6245 20.2484 23.0772C20.9258 23.5299 21.4538 24.1732 21.7656 24.926C22.0774 25.6787 22.159 26.507 22 27.3061C21.8411 28.1052 21.4487 28.8392 20.8726 29.4154C20.2965 29.9915 19.5625 30.3838 18.7634 30.5428C17.9643 30.7017 17.136 30.6202 16.3832 30.3084C15.6305 29.9966 14.9871 29.4686 14.5345 28.7911C14.0818 28.1137 13.8402 27.3172 13.8402 26.5024C13.8414 25.4103 14.2759 24.3632 15.0482 23.5909C15.8204 22.8186 16.8675 22.3842 17.9597 22.3829ZM17.9597 28.2476C18.3048 28.2476 18.6423 28.1452 18.9292 27.9535C19.2162 27.7617 19.4399 27.4892 19.572 27.1703C19.7041 26.8514 19.7386 26.5005 19.6713 26.162C19.604 25.8235 19.4378 25.5125 19.1937 25.2684C18.9496 25.0244 18.6387 24.8582 18.3002 24.7908C17.9616 24.7235 17.6107 24.758 17.2919 24.8901C16.973 25.0222 16.7004 25.2459 16.5087 25.5329C16.3169 25.8199 16.2145 26.1573 16.2145 26.5024C16.2152 26.9651 16.3992 27.4086 16.7264 27.7358C17.0535 28.0629 17.497 28.247 17.9597 28.2476Z" fill="#9E4DB6" stroke="#9E4DB6" stroke-width="0.3"/>
</svg>
