<svg width="78" height="36" viewBox="0 0 78 36" fill="none" xmlns="http://www.w3.org/2000/svg">
<path d="M4.74742 11.3067L17.4776 10.3243L26.9018 1.94553C28.3088 0.692942 30.1268 0.000615847 32.0106 0H47.5774C48.6005 0 49.5817 0.406427 50.3052 1.12987C51.0286 1.85332 51.435 2.83452 51.435 3.85763V9.00114H72.0091C73.0322 9.00114 74.0134 9.40757 74.7368 10.131C75.4603 10.8545 75.8667 11.8357 75.8667 12.8588V22.2174C76.2564 22.4413 76.5803 22.7638 76.806 23.1524C77.0317 23.5411 77.1512 23.9822 77.1526 24.4317V27.0034C77.1526 27.6855 76.8816 28.3396 76.3993 28.8219C75.917 29.3042 75.2629 29.5752 74.5808 29.5752H69.3216C69.0194 31.3722 68.0901 33.0039 66.6989 34.1808C65.3076 35.3576 63.5443 36.0033 61.7221 36.0033C59.8998 36.0033 58.1365 35.3576 56.7453 34.1808C55.354 33.0039 54.4248 31.3722 54.1225 29.5752H51.0776C50.8536 29.9648 50.5312 30.2888 50.1425 30.5145C49.7539 30.7402 49.3127 30.8597 48.8633 30.8611H20.1239C19.5944 32.3651 18.6111 33.6676 17.3098 34.5891C16.0085 35.5105 14.4532 36.0054 12.8587 36.0054C11.2642 36.0054 9.70901 35.5105 8.40768 34.5891C7.10637 33.6676 6.12309 32.3651 5.59352 30.8611H3.85759C2.83449 30.8611 1.85329 30.4546 1.12984 29.7312C0.406395 29.0077 -3.8147e-05 28.0265 -3.8147e-05 27.0034V16.4361C0.00563049 15.142 0.496445 13.8972 1.37544 12.9475C2.25444 11.9978 3.45768 11.4123 4.74742 11.3067ZM72.0091 11.5729H70.7232V12.8588C70.7232 13.1998 70.8587 13.5269 71.0998 13.768C71.341 14.0092 71.668 14.1446 72.0091 14.1446H73.295V12.8588C73.295 12.5177 73.1595 12.1907 72.9183 11.9495C72.6772 11.7084 72.3501 11.5729 72.0091 11.5729ZM74.5808 24.4317H68.3932C68.8542 25.2264 69.1686 26.0975 69.3216 27.0034H74.5808V24.4317ZM61.7221 33.4328C62.7394 33.4328 63.7338 33.1311 64.5796 32.566C65.4255 32.0008 66.0847 31.1975 66.474 30.2576C66.8633 29.3178 66.9652 28.2836 66.7667 27.2859C66.5683 26.2881 66.0784 25.3716 65.3591 24.6523C64.6397 23.933 63.7233 23.4431 62.7255 23.2446C61.7278 23.0462 60.6936 23.148 59.7537 23.5373C58.8139 23.9266 58.0106 24.5859 57.4454 25.4317C56.8802 26.2776 56.5786 27.272 56.5786 28.2893C56.5786 29.6534 57.1205 30.9617 58.0851 31.9263C59.0496 32.8909 60.3579 33.4328 61.7221 33.4328ZM61.7221 20.574C63.2367 20.5728 64.7177 21.0203 65.9783 21.8599H73.295V16.7164H72.0091C70.986 16.7164 70.0048 16.31 69.2813 15.5865C68.5579 14.8631 68.1514 13.8819 68.1514 12.8588V11.5729H51.435V27.0034H54.1225C54.4276 25.2076 55.3576 23.5775 56.7483 22.401C58.1389 21.2245 59.9006 20.5774 61.7221 20.574ZM2.57172 16.4361V16.7164H5.14347C5.4845 16.7164 5.81158 16.5809 6.05273 16.3398C6.29387 16.0986 6.42934 15.7716 6.42934 15.4305V13.7589L4.94673 13.8733C4.30207 13.9261 3.70058 14.2185 3.26092 14.6929C2.82125 15.1673 2.57535 15.7893 2.57172 16.4361ZM28.603 3.86663L21.3828 10.287H34.7186V2.57175H32.0106C30.7544 2.57111 29.5418 3.03192 28.603 3.86663ZM43.7198 2.57175H37.2904V10.287H42.4339C42.7749 10.287 43.102 10.1515 43.3432 9.91039C43.5843 9.66925 43.7198 9.34218 43.7198 9.00114V2.57175ZM20.574 28.2893H48.8633V3.85763C48.8633 3.5166 48.7278 3.18953 48.4867 2.94838C48.2455 2.70723 47.9184 2.57175 47.5774 2.57175H46.2915V9.00114C46.2915 10.0242 45.8851 11.0055 45.1617 11.7289C44.4382 12.4523 43.457 12.8588 42.4339 12.8588H18.0524L9.0011 13.5583V15.4305C9.0011 16.4536 8.59467 17.4348 7.87122 18.1583C7.14778 18.8817 6.16658 19.2882 5.14347 19.2882H2.57172V23.1458H7.12372C8.16423 21.9814 9.53397 21.1606 11.0515 20.7923C12.569 20.4239 14.1626 20.5253 15.6211 21.0831C17.0797 21.6409 18.3343 22.6286 19.2188 23.9155C20.1033 25.2025 20.5759 26.7277 20.574 28.2893ZM12.8587 33.4328C13.876 33.4328 14.8705 33.1311 15.7163 32.566C16.5622 32.0008 17.2214 31.1975 17.6107 30.2576C18 29.3178 18.1019 28.2836 17.9034 27.2859C17.7049 26.2881 17.2151 25.3716 16.4957 24.6523C15.7764 23.933 14.8599 23.4431 13.8622 23.2446C12.8644 23.0462 11.8302 23.148 10.8904 23.5373C9.95054 23.9266 9.14724 24.5859 8.58206 25.4317C8.01688 26.2776 7.71523 27.272 7.71523 28.2893C7.71523 29.6534 8.25713 30.9617 9.22173 31.9263C10.1863 32.8909 11.4946 33.4328 12.8587 33.4328ZM3.85759 28.2893H5.14347C5.1457 27.4127 5.29791 26.5428 5.59352 25.7175H2.57172V27.0034C2.57172 27.3445 2.70719 27.6715 2.94834 27.9127C3.18949 28.1538 3.51656 28.2893 3.85759 28.2893Z" fill="#9E4DB6"/>
</svg>
