<svg width="84" height="36" viewBox="0 0 84 36" fill="none" xmlns="http://www.w3.org/2000/svg">
<path d="M1.38528 31.8422H8.06658C10.3386 35.8045 15.3929 37.1746 19.3552 34.902C20.6287 34.1716 21.685 33.1156 22.4156 31.8422H60.718C62.9891 35.804 68.0423 37.1746 72.004 34.9036C73.2905 34.1661 74.355 33.0963 75.0862 31.8063C75.2438 31.7787 75.3953 31.7237 75.5339 31.6437L82.4617 27.487C82.6667 27.3639 82.8364 27.1899 82.9542 26.9818C83.072 26.7737 83.1339 26.5386 83.1339 26.2995V13.8297C83.1302 13.6662 83.0974 13.5047 83.0369 13.3528C83.0217 13.312 83.0046 13.272 82.9857 13.2328C82.9665 13.1926 82.9579 13.1538 82.9354 13.116L79.171 6.84112L80.2174 4.75051C80.559 4.06552 80.2811 3.23346 79.5968 2.89169C79.4735 2.8302 79.3418 2.78744 79.2059 2.76482L72.0797 1.57583L68.6976 1.01324C52.1078 -1.70593 35.084 1.08324 20.2292 8.95425L16.1447 11.1336L9.90967 12.5189C7.817 12.9798 5.85411 13.9035 4.16513 15.2222C2.47616 16.5409 1.10399 18.2212 0.149381 20.1397C0.0523516 20.3312 0.00121074 20.5428 0 20.7575L0 30.4565C0 31.2214 0.620184 31.8422 1.38528 31.8422ZM20.315 29.9023C19.0847 32.6975 15.8216 33.9666 13.0263 32.7365C10.2311 31.5062 8.962 28.243 10.1921 25.4478C11.4224 22.6524 14.6855 21.3835 17.4808 22.6136C18.4646 23.0465 19.301 23.7568 19.8875 24.6576C20.4741 25.5583 20.7854 26.6105 20.7835 27.6854C20.7811 28.4488 20.6212 29.2035 20.3138 29.9023H20.315ZM72.9664 29.9023C71.7363 32.6975 68.4732 33.9666 65.6778 32.7365C62.8827 31.5062 61.6135 28.243 62.8437 25.4478C64.0739 22.6524 67.3371 21.3835 70.1324 22.6136C71.1162 23.0465 71.9526 23.7568 72.5391 24.6576C73.1257 25.5583 73.437 26.6105 73.4351 27.6854C73.4327 28.4488 73.2728 29.2035 72.9654 29.9023H72.9664ZM80.3629 17.9865H76.899L74.8202 15.215H80.3629V17.9865ZM52.4491 2.88389C57.7301 2.60068 63.0262 2.89201 68.2443 3.75276L68.9721 3.87443L61.7764 11.0587H51.2793L52.4491 2.88389ZM62.3504 13.8299C62.5323 13.8299 62.7124 13.7941 62.8805 13.7244C63.0485 13.6547 63.2012 13.5526 63.3297 13.4239L72.326 4.42577L76.899 5.18927L76.3442 6.28242C76.2401 6.49107 76.1904 6.72261 76.1996 6.95559C76.2089 7.18857 76.2768 7.41544 76.3971 7.61516L79.3012 12.444H72.0494C71.2838 12.444 70.6637 13.0646 70.6637 13.8299C70.6637 14.1298 70.7611 14.4212 70.9411 14.6608L75.0977 20.2035C75.2268 20.3756 75.3941 20.5153 75.5865 20.6115C75.7789 20.7077 75.9911 20.7577 76.2062 20.7577H80.3629V25.5154L76.2061 28.0136C76.2061 27.9042 76.2128 27.7948 76.2128 27.6854C76.2128 23.0939 72.4906 19.3718 67.8997 19.3718C63.3083 19.3718 59.5862 23.0939 59.5862 27.6854C59.5891 28.1003 59.6245 28.5148 59.6916 28.9241C59.6984 28.9725 59.6916 29.0227 59.7028 29.0714H48.7069L50.8834 13.8297L62.3504 13.8299ZM49.6213 3.07773L48.4806 11.0587H22.176C30.7185 6.63927 40.0409 3.92833 49.6213 3.07773ZM2.77098 23.5287H5.54211V20.7575H2.97449C3.77593 19.3619 4.8598 18.1488 6.15679 17.1959C7.45378 16.243 8.93535 15.5712 10.5068 15.2235L16.7789 13.8299H48.0787L45.9075 29.0706H23.4378C23.4378 29.0221 23.4378 28.9725 23.4491 28.9241C23.5155 28.5142 23.5506 28.1003 23.5545 27.6849C23.5545 23.0939 19.8323 19.3718 15.2409 19.3718C10.6499 19.3717 6.92782 23.0939 6.92782 27.6849C6.93071 28.1004 6.96622 28.5142 7.03318 28.9241C7.03997 28.9725 7.03318 29.0223 7.04401 29.0706H2.77098V23.5287Z" fill="white"/>
</svg>
