<svg width="74" height="34" viewBox="0 0 74 34" fill="none" xmlns="http://www.w3.org/2000/svg">
<path d="M17.919 24.8454C18.13 24.7556 18.3584 24.714 18.5875 24.7236C18.8166 24.7332 19.0406 24.7938 19.2434 24.901C19.4461 25.0082 19.6223 25.1593 19.7592 25.3432C19.8961 25.5272 19.9903 25.7393 20.0348 25.9643C20.0793 26.1892 20.0731 26.4213 20.0165 26.6435C19.96 26.8657 19.8546 27.0725 19.708 27.2489C19.5614 27.4252 19.3773 27.5666 19.1692 27.6627C18.961 27.7589 18.734 27.8074 18.5047 27.8047C18.151 27.8005 17.8095 27.6748 17.5375 27.4487C17.2655 27.2226 17.0796 26.9098 17.0109 26.5628C16.9422 26.2158 16.995 25.8557 17.1603 25.543C17.3257 25.2303 17.5936 24.984 17.919 24.8454ZM56.081 24.8454C56.3397 24.9517 56.5646 25.1263 56.7316 25.3506C56.8986 25.5749 57.0014 25.8404 57.0291 26.1186C57.0567 26.3969 57.0082 26.6774 56.8886 26.9302C56.769 27.1829 56.5829 27.3984 56.3503 27.5535C56.1176 27.7086 55.8472 27.7975 55.5678 27.8107C55.2885 27.8238 55.0109 27.7607 54.7647 27.6282C54.5185 27.4956 54.313 27.2986 54.1702 27.0582C54.0274 26.8178 53.9527 26.543 53.9541 26.2634C53.9553 26.011 54.0186 25.7627 54.1383 25.5405C54.2579 25.3182 54.4304 25.1287 54.6404 24.9887C54.8504 24.8487 55.0917 24.7624 55.3429 24.7374C55.5941 24.7124 55.8475 24.7495 56.081 24.8454ZM32.3762 15.4745H35.4588C35.8675 15.4745 36.2596 15.6369 36.5486 15.9259C36.8377 16.215 37 16.607 37 17.0158C37 17.4245 36.8377 17.8166 36.5486 18.1056C36.2596 18.3947 35.8675 18.557 35.4588 18.557H32.3762C31.9674 18.557 31.5754 18.3947 31.2864 18.1056C30.9973 17.8166 30.8349 17.4245 30.8349 17.0158C30.8349 16.607 30.9973 16.215 31.2864 15.9259C31.5754 15.6369 31.9674 15.4745 32.3762 15.4745Z" fill="#9E4DB6"/>
<path d="M6.4523 11.5597L19.3682 9.40192L28.1072 1.91131C30.9586 -0.523904 32.2379 0.0617818 49.3306 0.0617818C53.415 0.0617818 57.1295 -0.277299 61.3218 2.99021C68.612 8.64669 71.8641 10.3883 73.652 15.5824C74.1298 17.1854 73.991 18.2026 73.991 21.6397C73.991 23.2747 73.3415 24.8429 72.1853 25.999C71.0291 27.1552 69.461 27.8048 67.8259 27.8048H63.048C62.6942 29.5468 61.7491 31.1131 60.3727 32.2381C58.9963 33.363 57.2734 33.9776 55.4957 33.9776C53.7181 33.9776 51.9951 33.363 50.6187 32.2381C49.2423 31.1131 48.2972 29.5468 47.9435 27.8048H26.0573C25.7036 29.5468 24.7585 31.1131 23.3821 32.2381C22.0057 33.363 20.2827 33.9776 18.5051 33.9776C16.7274 33.9776 15.0045 33.363 13.6281 32.2381C12.2517 31.1131 11.3066 29.5468 10.9528 27.8048H6.17487C4.53978 27.8048 2.97166 27.1552 1.81548 25.999C0.659302 24.8429 0.00976562 23.2747 0.00976562 21.6397V19.1582C0.0106049 17.3341 0.658493 15.5693 1.83818 14.178C3.01786 12.7866 4.65285 11.8589 6.4523 11.5597ZM24.2078 9.30944H37.0004V3.14434C30.265 3.14434 32.3766 2.32746 24.2078 9.30944ZM40.083 3.14434V9.30944H52.6135L48.4983 3.14434H40.083ZM55.4957 30.8873C56.4102 30.8873 57.3042 30.6161 58.0646 30.1081C58.825 29.6 59.4176 28.8778 59.7676 28.0329C60.1176 27.1881 60.2091 26.2584 60.0307 25.3614C59.8523 24.4645 59.4119 23.6406 58.7653 22.9939C58.1186 22.3473 57.2947 21.9069 56.3978 21.7285C55.5009 21.5501 54.5712 21.6417 53.7263 21.9916C52.8814 22.3416 52.1592 22.9342 51.6512 23.6946C51.1431 24.455 50.8719 25.349 50.8719 26.2635C50.8719 27.4898 51.359 28.6659 52.2262 29.533C53.0933 30.4002 54.2694 30.8873 55.4957 30.8873ZM18.5051 30.8873C19.4196 30.8873 20.3136 30.6161 21.0739 30.1081C21.8343 29.6 22.427 28.8778 22.7769 28.0329C23.1269 27.1881 23.2185 26.2584 23.0401 25.3614C22.8617 24.4645 22.4213 23.6406 21.7746 22.9939C21.128 22.3473 20.3041 21.9069 19.4071 21.7285C18.5102 21.5501 17.5805 21.6417 16.7356 21.9916C15.8907 22.3416 15.1686 22.9342 14.6605 23.6946C14.1524 24.455 13.8813 25.349 13.8813 26.2635C13.8813 27.4898 14.3684 28.6659 15.2355 29.533C16.1027 30.4002 17.2788 30.8873 18.5051 30.8873ZM6.17487 24.7222H10.9528C11.3066 22.9801 12.2517 21.4139 13.6281 20.2889C15.0045 19.1639 16.7274 18.5494 18.5051 18.5494C20.2827 18.5494 22.0057 19.1639 23.3821 20.2889C24.7585 21.4139 25.7036 22.9801 26.0573 24.7222H47.9435C48.2972 22.9801 49.2423 21.4139 50.6187 20.2889C51.9951 19.1639 53.7181 18.5494 55.4957 18.5494C57.2734 18.5494 58.9963 19.1639 60.3727 20.2889C61.7491 21.4139 62.6942 22.9801 63.048 24.7222H67.8259C68.6435 24.7222 69.4275 24.3974 70.0056 23.8193C70.5837 23.2413 70.9085 22.4572 70.9085 21.6397H69.3672C68.9584 21.6397 68.5664 21.4773 68.2774 21.1882C67.9883 20.8992 67.8259 20.5071 67.8259 20.0984C67.8259 19.6896 67.9883 19.2976 68.2774 19.0085C68.5664 18.7195 68.9584 18.5571 69.3672 18.5571H70.9085C70.9563 17.8807 70.8779 17.2012 70.6773 16.5534C69.3518 12.5924 67.5947 11.7755 59.426 5.41001C57.3652 3.82541 54.8095 3.02265 52.2128 3.14434C54.9717 7.29037 56.4667 8.63128 55.2954 10.7582C55.0358 11.2459 54.6499 11.6548 54.1781 11.9422C53.7063 12.2296 53.1659 12.385 52.6135 12.392C13.6809 12.392 23.6067 11.8217 6.96092 14.596C5.97499 14.7504 5.06546 15.2196 4.36819 15.9335C3.67093 16.6474 3.22334 17.5678 3.09232 18.5571H4.63359C5.04237 18.5571 5.43439 18.7195 5.72344 19.0085C6.01249 19.2976 6.17487 19.6896 6.17487 20.0984C6.17487 20.5071 6.01249 20.8992 5.72344 21.1882C5.43439 21.4773 5.04237 21.6397 4.63359 21.6397H3.09232C3.09232 22.4572 3.41708 23.2413 3.99517 23.8193C4.57327 24.3974 5.35733 24.7222 6.17487 24.7222Z" fill="#9E4DB6"/>
</svg>
