<svg width="89" height="31" viewBox="0 0 89 31" fill="none" xmlns="http://www.w3.org/2000/svg">
<path d="M21.4104 26.7897H63.0364C63.7256 26.7897 64.4148 26.2383 64.4148 25.4113C64.4148 24.5843 63.8635 24.033 63.0364 24.033H21.4104C20.7212 24.033 20.032 24.5843 20.032 25.4113C20.032 26.2383 20.7212 26.7897 21.4104 26.7897Z" fill="#9E4DB6"/>
<path d="M74.2011 27.6167C74.339 27.6167 74.4768 27.6167 74.6146 27.4789L85.9171 23.4817C87.4332 22.7925 88.3981 21.552 88.5359 20.1736L88.9494 17.9683C89.2251 16.4521 88.5359 15.0738 87.2954 14.2467C87.1576 14.1089 87.0197 13.8332 86.8819 13.5576L86.3306 11.2144C85.9171 9.2847 84.2631 7.90635 82.1955 7.90635H79.7145C79.5767 7.90635 79.5767 7.90635 79.301 7.76852L79.0253 7.63068C68.4121 3.08214 58.9015 0.463278 50.9071 0.187608C43.1883 -0.777234 35.4696 1.97946 27.4752 8.45769C27.1995 8.73336 26.786 8.87119 26.3725 8.87119C16.9997 8.31985 9.28099 9.6982 2.80276 13.1441C1.28658 13.9711 0.597404 15.2116 0.597404 16.8656V22.1033C0.597404 24.3087 2.38926 26.2384 4.73245 26.2384H9.83233C10.5215 26.2384 11.2107 25.687 11.2107 24.86C11.2107 24.033 10.6593 23.4817 9.83233 23.4817H4.87029C4.04327 23.4817 3.49194 22.7925 3.49194 22.1033V16.8656C3.49194 16.4521 3.62977 16.0386 4.31894 15.6251C10.2458 12.4549 17.5511 11.0765 26.3725 11.6279C27.3373 11.6279 28.44 11.3522 29.1292 10.663C36.5723 4.59832 43.464 2.11729 50.6314 2.9443C58.3501 3.21997 67.5851 5.56316 77.9227 10.1117L78.1983 10.2495C78.474 10.3874 78.8875 10.5252 79.5767 10.5252H82.1955C82.8847 10.5252 83.436 10.9387 83.5739 11.6279L84.1252 13.9711C84.4009 14.9359 84.8144 15.7629 85.6414 16.3143C86.0549 16.5899 86.3306 17.0034 86.1927 17.5548L85.9171 19.7601C85.9171 20.1736 85.5036 20.5871 84.9522 20.8628L73.7876 24.86C73.0984 25.1357 72.6849 25.8249 72.9606 26.6519C73.0984 27.2032 73.6498 27.6167 74.2011 27.6167Z" fill="#9E4DB6"/>
<path d="M37.1237 14.6602H67.1717C68.55 14.6602 69.6527 13.6954 69.7905 12.317C70.0662 10.9387 69.2392 9.69817 67.9987 9.14683C61.6583 7.07931 49.1153 5.42529 48.1505 5.42529C44.0155 5.42529 40.0183 6.66581 35.7454 9.28467C34.7805 9.836 34.2292 11.0765 34.5049 12.1792C34.7805 13.144 35.4697 13.8332 36.4346 14.1089C36.5724 14.5224 36.8481 14.6602 37.1237 14.6602ZM48.1505 8.31982C48.9775 8.31982 61.107 9.836 67.1717 11.9035L37.6751 12.0414C37.5372 11.9035 37.2616 11.9035 37.1237 11.9035C40.9831 9.4225 44.5668 8.31982 48.1505 8.31982ZM15.8972 30.5112C20.0322 30.5112 23.3403 27.2032 23.3403 23.0681C23.3403 18.9331 20.0322 15.6251 15.8972 15.6251C11.7621 15.6251 8.45411 18.9331 8.45411 23.0681C8.45411 27.2032 11.7621 30.5112 15.8972 30.5112ZM15.8972 18.3818C18.516 18.3818 20.5836 20.4493 20.5836 23.0681C20.5836 25.687 18.516 27.7545 15.8972 27.7545C13.2783 27.7545 11.2108 25.687 11.2108 23.0681C11.2108 20.4493 13.2783 18.3818 15.8972 18.3818ZM69.1014 30.5112C73.2364 30.5112 76.5444 27.2032 76.5444 23.0681C76.5444 18.9331 73.2364 15.6251 69.1014 15.6251C64.9663 15.6251 61.6583 18.9331 61.6583 23.0681C61.6583 27.2032 64.9663 30.5112 69.1014 30.5112ZM69.1014 18.3818C71.7202 18.3818 73.7877 20.4493 73.7877 23.0681C73.7877 25.687 71.7202 27.7545 69.1014 27.7545C66.4825 27.7545 64.415 25.687 64.415 23.0681C64.415 20.4493 66.4825 18.3818 69.1014 18.3818Z" fill="#9E4DB6"/>
</svg>
