<svg width="95" height="39" viewBox="0 0 95 39" fill="none" xmlns="http://www.w3.org/2000/svg">
<path d="M56.824 17.1598H53.704C53.2903 17.1598 52.8935 17.3241 52.6009 17.6167C52.3084 17.9092 52.144 18.306 52.144 18.7198C52.144 19.1335 52.3084 19.5303 52.6009 19.8228C52.8935 20.1154 53.2903 20.2797 53.704 20.2797H56.824C57.2377 20.2797 57.6345 20.1154 57.927 19.8228C58.2196 19.5303 58.3839 19.1335 58.3839 18.7198C58.3839 18.306 58.2196 17.9092 57.927 17.6167C57.6345 17.3241 57.2377 17.1598 56.824 17.1598Z" fill="#9E4DB6"/>
<path d="M92.7031 18.7198H91.1432V3.12001H92.7031C93.1169 3.12001 93.5136 2.95566 93.8062 2.66311C94.0987 2.37055 94.2631 1.97377 94.2631 1.56003C94.2631 1.1463 94.0987 0.749516 93.8062 0.456964C93.5136 0.164412 93.1169 5.86504e-05 92.7031 5.86504e-05H86.4632C86.137 0.00244701 85.8194 0.105666 85.5541 0.295571C85.2888 0.485476 85.0887 0.752776 84.9812 1.06084L82.5165 8.48632L76.4482 4.46159C72.9144 2.08826 68.8561 0.610568 64.6236 0.156054C64.2445 0.115494 55.5757 5.86504e-05 55.5757 5.86504e-05C49.969 -0.0117644 44.5045 1.7642 39.9759 5.06998L29.6645 12.5735L13.238 15.865C9.98618 16.5065 7.06748 18.2809 5.00128 20.8725C4.13834 21.941 3.44392 23.1352 2.94212 24.4137L2.45852 25.6461L1.11694 26.972C0.829603 27.2695 0.667631 27.6661 0.664551 28.0796V32.7596C0.664551 33.1733 0.828905 33.5701 1.12146 33.8626C1.41401 34.1552 1.8108 34.3195 2.22453 34.3195H15.9679C16.7872 35.7423 17.9669 36.924 19.3883 37.7457C20.8096 38.5674 22.4224 39 24.0642 39C25.706 39 27.3187 38.5674 28.7401 37.7457C30.1615 36.924 31.3412 35.7423 32.1605 34.3195H67.4471C68.3713 35.9238 69.7512 37.2174 71.4118 38.036C73.0725 38.8546 74.9389 39.1614 76.7742 38.9173C78.6095 38.6733 80.3308 37.8895 81.7199 36.6653C83.1089 35.4412 84.1029 33.832 84.5757 32.042L93.3583 27.9392C93.6291 27.8139 93.8583 27.6136 94.0186 27.362C94.179 27.1103 94.2638 26.818 94.2631 26.5196V20.2797C94.2631 19.866 94.0987 19.4692 93.8062 19.1767C93.5136 18.8841 93.1169 18.7198 92.7031 18.7198ZM87.5864 3.12001H88.0232V9.35991H85.5116L87.5864 3.12001ZM61.5036 3.12001C61.5036 3.12001 62.268 3.13561 62.5332 3.15121L69.1787 8.68912C69.7073 9.12545 70.1325 9.67356 70.4239 10.294C70.7152 10.9144 70.8653 11.5917 70.8635 12.2771V12.4799H61.5036V3.12001ZM41.8167 7.59714C45.8089 4.67687 50.6295 3.10825 55.5757 3.12001H58.3837V12.4799H35.0932L41.8167 7.59714ZM7.02925 23.3997H10.2272L9.18202 24.9597H6.14007C6.39051 24.4148 6.68803 23.8928 7.02925 23.3997ZM24.0642 35.8795C22.8301 35.8795 21.6236 35.5135 20.5975 34.8279C19.5713 34.1422 18.7716 33.1677 18.2993 32.0275C17.827 30.8873 17.7034 29.6327 17.9442 28.4223C18.1849 27.2118 18.7792 26.1 19.6519 25.2273C20.5246 24.3547 21.6364 23.7604 22.8468 23.5196C24.0573 23.2788 25.3119 23.4024 26.4521 23.8747C27.5923 24.347 28.5668 25.1467 29.2525 26.1729C29.9381 27.199 30.3041 28.4055 30.3041 29.6396C30.3041 31.2945 29.6467 32.8817 28.4765 34.0519C27.3063 35.2221 25.7191 35.8795 24.0642 35.8795ZM75.5434 35.8795C74.3093 35.8795 73.1028 35.5135 72.0767 34.8279C71.0505 34.1422 70.2508 33.1677 69.7785 32.0275C69.3062 30.8873 69.1826 29.6327 69.4234 28.4223C69.6642 27.2118 70.2584 26.1 71.1311 25.2273C72.0038 24.3547 73.1156 23.7604 74.326 23.5196C75.5365 23.2788 76.7911 23.4024 77.9313 23.8747C79.0715 24.347 80.046 25.1467 80.7317 26.1729C81.4173 27.199 81.7833 28.4055 81.7833 29.6396C81.7833 31.2945 81.1259 32.8817 79.9557 34.0519C78.7855 35.2221 77.1983 35.8795 75.5434 35.8795ZM91.1432 25.5213L84.8252 28.4852C84.5197 26.1314 83.3314 23.9816 81.5007 22.4709C79.67 20.9601 77.3338 20.2013 74.9648 20.348C72.5958 20.4947 70.371 21.536 68.7407 23.261C67.1104 24.9861 66.1963 27.2661 66.1835 29.6396C66.1909 30.1624 66.2378 30.6839 66.3239 31.1996H33.2836C33.3698 30.6839 33.4167 30.1624 33.424 29.6396C33.424 27.1572 32.4379 24.7765 30.6826 23.0212C28.9273 21.2659 26.5466 20.2797 24.0642 20.2797C21.5818 20.2797 19.2011 21.2659 17.4458 23.0212C15.6905 24.7765 14.7043 27.1572 14.7043 29.6396C14.7117 30.1624 14.7586 30.6839 14.8447 31.1996H3.7845V28.7192L4.42409 28.0796H10.0244C10.2813 28.0783 10.534 28.0135 10.7599 27.8911C10.9857 27.7686 11.1779 27.5922 11.3192 27.3776L14.4391 22.6977C14.6 22.4665 14.6926 22.1947 14.7064 21.9133C14.7202 21.632 14.6546 21.3524 14.5171 21.1065C14.3867 20.8556 14.1894 20.6457 13.9472 20.4998C13.705 20.3539 13.4271 20.2777 13.1444 20.2797H10.3364C11.4212 19.6321 12.608 19.1732 13.8463 18.9226L30.4601 15.5998H72.4234C72.8372 15.5998 73.234 15.4355 73.5265 15.1429C73.8191 14.8504 73.9834 14.4536 73.9834 14.0398V12.2771C73.983 11.1338 73.7312 10.0046 73.246 8.96946C72.7608 7.93429 72.0539 7.01844 71.1755 6.28676L68.6171 4.14959C70.7804 4.82785 72.8386 5.80444 74.7322 7.05115L82.4853 12.2147C82.7377 12.3881 83.037 12.4806 83.3433 12.4799H88.0232L88.0076 14.0398H81.7833C81.4747 14.0387 81.1729 14.1302 80.917 14.3027C80.661 14.4752 80.4629 14.7205 80.3481 15.007C80.2287 15.2911 80.196 15.6042 80.2543 15.9068C80.3126 16.2095 80.4593 16.488 80.6757 16.7074L85.3556 21.3873C85.6531 21.6747 86.0497 21.8366 86.4632 21.8397H91.1432V25.5213ZM88.0076 17.1598L87.992 18.7198H87.1028L85.5428 17.1598H88.0076Z" fill="#9E4DB6"/>
</svg>
