<svg width="73" height="41" viewBox="0 0 73 41" fill="none" xmlns="http://www.w3.org/2000/svg">
<path d="M4.01191 13.8873L16.7825 12.4931L28.0551 1.37088C28.9435 0.489646 30.1452 -0.00333402 31.3966 1.69724e-05H62.4604C63.2863 0.0018872 64.0975 0.217781 64.8151 0.626638C65.5326 1.0355 66.1319 1.62336 66.5546 2.33287L72.3364 12.1051C72.7708 12.8387 73 13.6756 73 14.5282V29.0521C73.0001 29.2717 72.9329 29.4862 72.8073 29.6664C72.6817 29.8467 72.5038 29.9841 72.2977 30.0601L65.5944 32.5329C65.4085 34.6041 64.4641 36.5335 62.9425 37.9509C61.4209 39.3682 59.4293 40.1734 57.3502 40.212C55.2711 40.2506 53.251 39.5198 51.6779 38.16C50.1047 36.8001 49.0893 34.907 48.8267 32.8442H26.8807C26.6215 34.8798 25.629 36.751 24.0891 38.1073C22.5492 39.4635 20.5675 40.2118 18.5155 40.2118C16.4635 40.2118 14.4819 39.4635 12.942 38.1073C11.4021 36.751 10.4096 34.8798 10.1504 32.8442H1.93996C1.79886 32.8443 1.65912 32.8165 1.52873 32.7626C1.39835 32.7086 1.27988 32.6295 1.18011 32.5297C1.08033 32.4299 1.0012 32.3114 0.947235 32.1811C0.893272 32.0507 0.86554 31.9109 0.865623 31.7698V17.3964C0.864388 16.5262 1.18507 15.6864 1.76595 15.0386C2.34681 14.3907 3.1468 13.9806 4.01191 13.8873ZM70.8513 19.7157H66.8609V20.2867C66.8607 20.4013 66.8864 20.5145 66.9359 20.6179C66.9854 20.7213 67.0576 20.8123 67.147 20.884L69.0624 22.4298C69.3083 22.628 69.6146 22.7363 69.9305 22.7368H70.8513V19.7157ZM57.1918 38.0624C58.4364 38.0624 59.653 37.6934 60.6878 37.0019C61.7226 36.3105 62.5291 35.3277 63.0054 34.1779C63.4817 33.0281 63.6063 31.7629 63.3635 30.5422C63.1207 29.3216 62.5214 28.2003 61.6413 27.3203C60.7613 26.4403 59.6401 25.841 58.4194 25.5982C57.1988 25.3554 55.9336 25.48 54.7838 25.9563C53.6339 26.4325 52.6512 27.2391 51.9597 28.2739C51.2683 29.3087 50.8993 30.5253 50.8993 31.7698C50.901 33.4382 51.5646 35.0377 52.7443 36.2174C53.924 37.3971 55.5235 38.0606 57.1918 38.0624ZM18.5155 38.0624C19.7601 38.0624 20.9767 37.6934 22.0115 37.0019C23.0463 36.3105 23.8528 35.3277 24.3291 34.1779C24.8054 33.0281 24.93 31.7629 24.6872 30.5422C24.4444 29.3216 23.8451 28.2003 22.965 27.3203C22.085 26.4403 20.9638 25.841 19.7431 25.5982C18.5225 25.3554 17.2573 25.48 16.1075 25.9563C14.9576 26.4325 13.9749 27.2391 13.2834 28.2739C12.592 29.3087 12.2229 30.5253 12.2229 31.7698C12.2247 33.4382 12.8883 35.0377 14.068 36.2174C15.2477 37.3971 16.8472 38.0606 18.5155 38.0624ZM10.1504 30.6955C10.4096 28.6599 11.4021 26.7887 12.942 25.4324C14.4819 24.0761 16.4635 23.3279 18.5155 23.3279C20.5675 23.3279 22.5492 24.0761 24.0891 25.4324C25.629 26.7887 26.6215 28.6599 26.8807 30.6955H48.8267C49.0816 28.696 50.0442 26.854 51.5401 25.5032C53.0361 24.1523 54.9665 23.382 56.9815 23.3317C58.9965 23.2815 60.9628 23.9546 62.5242 25.2292C64.0857 26.5039 65.1389 28.2956 65.4931 30.2799L70.8513 28.3031V24.8855H69.9305C69.1237 24.8844 68.3414 24.6081 67.713 24.1021L65.7976 22.5557C65.4578 22.2828 65.1837 21.937 64.9958 21.5437C64.8079 21.1505 64.711 20.72 64.7122 20.2842V18.6389C64.7127 18.3544 64.8261 18.0816 65.0276 17.8807C65.229 17.6797 65.502 17.5669 65.7866 17.567H70.8513V14.5282C70.8513 14.0607 70.7256 13.6019 70.4873 13.1997L64.7036 3.4287C64.472 3.0395 64.1434 2.71699 63.7499 2.49265C63.3564 2.26832 62.9115 2.14981 62.4586 2.1487H31.3947C30.7097 2.14772 30.0521 2.41812 29.5659 2.90074L18.0244 14.2851C17.8519 14.4549 17.6272 14.5615 17.3865 14.5877L4.24458 16.0231C3.90594 16.0594 3.59275 16.2199 3.36536 16.4735C3.13799 16.727 3.01249 17.0558 3.01308 17.3964V18.5161L11.6422 17.5738C11.8279 17.5515 12.0161 17.5789 12.1878 17.6532C12.3594 17.7275 12.5082 17.8461 12.6189 17.9968C12.7309 18.1462 12.802 18.3222 12.8251 18.5075C12.8483 18.6928 12.8227 18.8809 12.7509 19.0533L11.2352 22.7073C10.9692 23.3529 10.5171 23.9048 9.9365 24.2927C9.35587 24.6806 8.67296 24.8869 7.97469 24.8855H3.01308V30.6955H10.1504ZM3.01431 22.7368H7.97592C8.24898 22.7375 8.51608 22.657 8.74325 22.5054C8.97041 22.3539 9.14738 22.1383 9.25163 21.8859L10.0718 19.9085L3.01185 20.6789L3.01431 22.7368Z" fill="#9E4DB6"/>
</svg>
