<svg width="69" height="41" viewBox="0 0 69 41" fill="none" xmlns="http://www.w3.org/2000/svg">
<path d="M0.109718 25.0467C0.499229 21.941 2.00928 19.0843 4.35623 17.0133C6.70317 14.9424 9.72552 13.7995 12.8556 13.7995H16.5523L26.4578 3.87973C27.3941 2.94345 28.5072 2.20262 29.7323 1.70031C30.9575 1.198 32.2702 0.94423 33.5943 0.953749H57.1021C57.32 0.954273 57.535 1.00472 57.7304 1.10121C57.9259 1.1977 58.0967 1.33767 58.2296 1.5104L68.2208 14.3562C68.4141 14.6053 68.5195 14.9115 68.5205 15.2268V28.0726C68.5205 29.9653 67.7686 31.7805 66.4303 33.1189C65.0919 34.4572 63.2767 35.2091 61.384 35.2091H58.0298C57.4355 36.8721 56.3416 38.3106 54.8979 39.3277C53.4543 40.3449 51.7315 40.8908 49.9655 40.8908C48.1996 40.8908 46.4768 40.3449 45.0331 39.3277C43.5895 38.3106 42.4956 36.8721 41.9012 35.2091H29.4837C28.8894 36.8721 27.7954 38.3106 26.3518 39.3277C24.9082 40.3449 23.1854 40.8908 21.4194 40.8908C19.6534 40.8908 17.9306 40.3449 16.487 39.3277C15.0434 38.3106 13.9494 36.8721 13.3551 35.2091H1.43711C1.05856 35.2091 0.695526 35.0587 0.427856 34.7911C0.160179 34.5234 0.00980377 34.1603 0.00980377 33.7818V26.6453C0.00709534 26.1108 0.0404739 25.5767 0.109718 25.0467ZM28.4846 5.9065L20.5773 13.7995H37.1198V3.80836H33.5372C32.5977 3.80382 31.6668 3.98709 30.7991 4.34739C29.9314 4.7077 29.1445 5.23779 28.4846 5.9065ZM65.6659 19.5087H64.2386V22.3633H65.6659V19.5087ZM49.9655 38.0637C51.0947 38.0637 52.1985 37.7289 53.1374 37.1015C54.0763 36.4742 54.808 35.5825 55.2402 34.5393C55.6723 33.4961 55.7853 32.3482 55.5651 31.2407C55.3448 30.1332 54.801 29.1159 54.0026 28.3175C53.2041 27.519 52.1868 26.9753 51.0793 26.755C49.9719 26.5347 48.8239 26.6477 47.7807 27.0799C46.7375 27.512 45.8458 28.2437 45.2185 29.1826C44.5911 30.1215 44.2563 31.2253 44.2563 32.3545C44.2563 33.8687 44.8578 35.3208 45.9285 36.3915C46.9992 37.4622 48.4513 38.0637 49.9655 38.0637ZM21.4194 38.0637C22.5486 38.0637 23.6524 37.7289 24.5913 37.1015C25.5302 36.4742 26.2619 35.5825 26.694 34.5393C27.1262 33.4961 27.2392 32.3482 27.0189 31.2407C26.7986 30.1332 26.2549 29.1159 25.4564 28.3175C24.658 27.519 23.6407 26.9753 22.5332 26.755C21.4257 26.5347 20.2778 26.6477 19.2346 27.0799C18.1913 27.512 17.2997 28.2437 16.6724 29.1826C16.045 30.1215 15.7102 31.2253 15.7102 32.3545C15.7102 33.8687 16.3117 35.3208 17.3824 36.3915C18.4531 37.4622 19.9052 38.0637 21.4194 38.0637ZM2.86442 32.3545H12.8556C12.8556 30.0832 13.7578 27.905 15.3638 26.2989C16.9699 24.6929 19.1481 23.7907 21.4194 23.7907C23.6907 23.7907 25.8689 24.6929 27.4749 26.2989C29.081 27.905 29.9832 30.0832 29.9832 32.3545H41.4017C41.4017 30.0832 42.3039 27.905 43.91 26.2989C45.516 24.6929 47.6943 23.7907 49.9655 23.7907C52.2368 23.7907 54.415 24.6929 56.0211 26.2989C57.6271 27.905 58.5294 30.0832 58.5294 32.3545H61.384C62.5196 32.3545 63.6087 31.9034 64.4118 31.1003C65.2148 30.2973 65.6659 29.2082 65.6659 28.0726V25.218H62.8113C62.4327 25.218 62.0697 25.0676 61.802 24.7999C61.5344 24.5322 61.384 24.1692 61.384 23.7907V18.0814C61.384 17.7029 61.5344 17.3398 61.802 17.0722C62.0697 16.8045 62.4327 16.6541 62.8113 16.6541H65.6659V15.7121L56.4027 3.80836H39.9744V15.2268C39.9744 15.6054 39.824 15.9684 39.5563 16.2361C39.2887 16.5037 38.9256 16.6541 38.5471 16.6541H12.8556C10.7035 16.6536 8.60881 17.3479 6.88317 18.6338C5.15754 19.9196 3.89321 21.7283 3.27834 23.7907H7.14634C7.52488 23.7907 7.88792 23.941 8.1556 24.2087C8.42327 24.4764 8.57364 24.8394 8.57364 25.218C8.57364 25.5965 8.42327 25.9595 8.1556 26.2272C7.88792 26.4949 7.52488 26.6453 7.14634 26.6453H2.86442V32.3545Z" fill="#9E4DB6"/>
<path d="M37.1198 22.3633C36.3315 22.3633 35.6925 21.7243 35.6925 20.936C35.6925 20.1477 36.3315 19.5087 37.1198 19.5087C37.9081 19.5087 38.5471 20.1477 38.5471 20.936C38.5471 21.7243 37.9081 22.3633 37.1198 22.3633Z" fill="#9E4DB6"/>
<path d="M44.2562 5.2356H52.82C53.0551 5.23681 53.2863 5.29608 53.4929 5.40813C53.6996 5.52018 53.8754 5.68154 54.0047 5.87788L59.7139 14.4417C59.8502 14.6524 59.9286 14.8952 59.9411 15.1458C59.9536 15.3964 59.8999 15.6458 59.7853 15.869C59.6678 16.1023 59.4885 16.2988 59.2671 16.4372C59.0456 16.5756 58.7904 16.6506 58.5292 16.654H44.2562C43.8776 16.654 43.5146 16.5037 43.2469 16.236C42.9792 15.9683 42.8289 15.6053 42.8289 15.2267V6.6629C42.8289 6.28436 42.9792 5.92131 43.2469 5.65364C43.5146 5.38597 43.8776 5.2356 44.2562 5.2356ZM45.6835 13.7994H55.8602L52.0493 8.09021H45.6835V13.7994Z" fill="#9E4DB6"/>
</svg>
